<svg width="32" height="16" viewBox="0 0 32 16" fill="none" xmlns="http://www.w3.org/2000/svg">
<path d="M19.2476 2.38319L16.8117 5.72719C16.4389 5.37424 15.9854 5.11789 15.4908 4.98054C14.9961 4.84318 14.4754 4.82899 13.974 4.9392C13.4726 5.04941 13.0058 5.28067 12.6143 5.6128C12.2229 5.94492 11.9187 6.36782 11.7283 6.84457C11.5378 7.32131 11.467 7.83742 11.522 8.34784C11.5769 8.85825 11.756 9.34746 12.0435 9.77275C12.331 10.198 12.7183 10.5465 13.1715 10.7877C13.6246 11.0289 14.13 11.1555 14.6433 11.1564C15.5489 11.2382 16.451 10.9658 17.16 10.3964C18.0063 9.73303 21.8451 4.46686 23.5377 0.959776M23.5377 0.958984H31.4369H23.5377Z" stroke="#D7DDDF" stroke-linecap="round" stroke-linejoin="round"/>
<path d="M31.4375 0.957642C24.5777 11.3681 19.663 15.3921 14.9265 15.309C10.19 15.2259 7.355 12.0449 7.355 8.00427C7.34936 6.63023 7.73244 5.2826 8.46001 4.11698C9.18757 2.95136 10.23 2.01527 11.4668 1.41679C12.7037 0.818304 14.0846 0.581828 15.4501 0.73466C16.8157 0.887493 18.1101 1.4234 19.1841 2.28052M0.5625 0.957642L4.36171 7.28702M4.3625 7.26089C4.5112 4.84926 5.56465 2.58262 7.31225 0.914101L0.5625 0.958434L4.3625 7.26089Z" stroke="#D7DDDF" stroke-linecap="round" stroke-linejoin="round"/>
</svg>
