<svg width="60" height="10" viewBox="0 0 60 10" fill="none" xmlns="http://www.w3.org/2000/svg">
<path d="M22.3125 9.23828H27.8156L29.9062 6.40703H24.4031L22.3125 9.23828ZM0 7.52266V8.12266H7.66875L8.10938 7.52266H0ZM16.2094 6.40703C15.3937 6.40703 15.6469 6.06953 15.7781 5.89141C16.0406 5.53516 16.4906 4.91641 16.7531 4.56953C17.0156 4.22266 17.0156 4.01641 16.4906 4.01641H11.7094L7.85625 9.24766H17.2406C20.3438 9.24766 22.0688 7.13828 22.6031 6.40703H16.2094ZM45.975 5.76016L49.6594 0.753906H43.8281L40.1438 5.76016H45.975ZM8.93438 6.40703H0V7.00703H8.49375L8.93438 6.40703ZM19.3406 3.91328C19.0781 4.26953 18.6375 4.88828 18.375 5.24453C18.2437 5.43203 17.9906 5.76016 18.8063 5.76016H23.0812C23.0812 5.76016 23.7656 4.82266 24.3469 4.03516C25.1344 2.96641 24.4125 0.753906 21.6094 0.753906H10.5562L8.64375 3.36016H19.0875C19.6125 3.36016 19.6031 3.56641 19.3406 3.91328ZM0 9.23828H6.85312L7.29375 8.63828H0V9.23828ZM30.2812 9.23828H35.7844L37.875 6.40703H32.3719C32.3625 6.40703 30.2812 9.23828 30.2812 9.23828ZM51.0938 9.24766H60V8.64766H51.5344L51.0938 9.24766ZM53.1844 6.40703L52.7437 7.00703H60V6.40703H53.1844ZM51.9187 8.12266H60V7.52266H52.3594L51.9187 8.12266ZM36.525 0.753906L34.4156 3.62266H31.9594L34.0687 0.753906H28.5656L24.8812 5.76016H38.3438L42.0281 0.753906H36.525ZM39.6656 6.40703C39.6656 6.40703 39.2625 6.96016 39.0656 7.22266C38.3719 8.16016 38.9813 9.24766 41.2406 9.24766H50.0813L52.1719 6.40703H39.6656Z" fill="#D7DDDF"/>
</svg>
