<svg width="30" height="32" viewBox="0 0 30 32" fill="none" xmlns="http://www.w3.org/2000/svg">
<path d="M8.78266 0C3.96157 0 -0.00012207 4.23855 -0.00012207 9.40945V22.5905C-0.00012207 27.7556 3.95614 32 8.78266 32H21.0859C25.907 32 29.8687 27.7615 29.8687 22.5905V9.41091C29.8687 4.24436 25.9124 0 21.0859 0H8.78266ZM8.78266 2.90909H21.0859C21.883 2.90794 22.6725 3.0753 23.4091 3.40156C24.1457 3.72783 24.815 4.2066 25.3786 4.81044C25.9422 5.41429 26.3891 6.13134 26.6937 6.92051C26.9982 7.70969 27.1544 8.55549 27.1533 9.40945V22.5905C27.1544 23.4445 26.9982 24.2903 26.6937 25.0795C26.3891 25.8687 25.9422 26.5857 25.3786 27.1896C24.815 27.7934 24.1457 28.2722 23.4091 28.5984C22.6725 28.9247 21.883 29.0921 21.0859 29.0909H8.78402C7.98682 29.0923 7.19721 28.925 6.46043 28.5989C5.72365 28.2727 5.0542 27.7939 4.49042 27.1901C3.92665 26.5862 3.47965 25.8691 3.17503 25.0798C2.8704 24.2906 2.71415 23.4446 2.71522 22.5905V9.41091C2.71397 8.55682 2.87005 7.71087 3.17451 6.92152C3.47896 6.13218 3.92582 5.41495 4.48946 4.81096C5.05311 4.20696 5.72246 3.72806 6.45917 3.4017C7.19588 3.07534 7.98546 2.90794 8.78266 2.90909ZM22.9527 6.09164C22.791 6.09087 22.6307 6.12443 22.4811 6.19038C22.3316 6.25634 22.1957 6.35338 22.0813 6.4759C21.967 6.59842 21.8764 6.744 21.8148 6.90424C21.7533 7.06447 21.7219 7.23618 21.7226 7.40945C21.7226 8.14255 22.2684 8.72727 22.9527 8.72727C23.1145 8.72824 23.275 8.69482 23.4247 8.62895C23.5744 8.56308 23.7105 8.46607 23.825 8.34353C23.9395 8.22098 24.0302 8.07534 24.0918 7.91501C24.1535 7.75468 24.1848 7.58285 24.1841 7.40945C24.1848 7.23606 24.1535 7.06423 24.0918 6.9039C24.0302 6.74357 23.9395 6.59792 23.825 6.47538C23.7105 6.35284 23.5744 6.25583 23.4247 6.18996C23.275 6.12409 23.1145 6.09067 22.9527 6.09164ZM14.9343 7.27273C10.454 7.27273 6.78824 11.2 6.78824 16C6.78824 20.8 10.454 24.7273 14.9343 24.7273C19.4146 24.7273 23.0803 20.8 23.0803 16C23.0803 11.2 19.4146 7.27273 14.9343 7.27273ZM14.9343 10.1818C17.9524 10.1818 20.365 12.7665 20.365 16C20.365 19.2335 17.9524 21.8182 14.9343 21.8182C11.9162 21.8182 9.50359 19.2335 9.50359 16C9.50359 12.7665 11.9162 10.1818 14.9343 10.1818Z" fill="white"/>
</svg>
