<svg width="30" height="20" viewBox="0 0 30 20" fill="none" xmlns="http://www.w3.org/2000/svg">
<path d="M1.39593 0.84964C0.62523 0.84964 0 1.47454 0 2.24557V18.2937C0 19.0646 0.62532 19.6896 1.39593 19.6896H28.6041C29.3748 19.6896 30 19.0647 30 18.2937V2.24554C30 1.47463 29.3747 0.849609 28.6041 0.849609H1.3959L1.39593 0.84964ZM9.83718 3.11746C11.5496 3.11746 13.1223 3.71323 14.3569 4.70839C13.3182 5.63776 12.5435 6.85879 12.1613 8.24278H12.7603C13.1131 7.10104 13.754 6.08452 14.5988 5.27839C15.4435 6.08452 16.0844 7.10104 16.4372 8.24278H17.0456C16.6581 6.86608 15.8823 5.65234 14.8444 4.72903C16.0813 3.72124 17.6602 3.11743 19.38 3.11743C23.3487 3.11743 26.5659 6.33499 26.5659 10.3043C26.5659 14.2736 23.3487 17.4912 19.38 17.4912C17.6316 17.4912 16.0284 16.8671 14.7825 15.829C15.897 14.8594 16.7186 13.5596 17.0944 12.0809H16.5084C16.1748 13.322 15.5032 14.4258 14.5987 15.289C13.6942 14.4258 13.0236 13.322 12.69 12.0809H12.1321C12.5101 13.5382 13.321 14.8198 14.4187 15.7803C13.1751 16.8056 11.5782 17.4218 9.83715 17.4218C5.86845 17.4218 2.65125 14.2197 2.65125 10.2696C2.65125 6.31954 5.86845 3.11746 9.83718 3.11746ZM18.8409 8.16964C17.9775 8.16964 17.1375 8.9245 17.1375 10.3418C17.1375 11.2817 17.5912 11.9018 18.4837 11.9018C18.7361 11.9019 19.1381 11.7987 19.1381 11.7987L19.2712 10.9775C19.2712 10.9775 18.9044 11.1631 18.6525 11.1631C18.122 11.1631 17.9091 10.755 17.9091 10.3165C17.9091 9.42694 18.3655 8.93743 18.8737 8.93743C19.2548 8.93743 19.5609 9.15307 19.5609 9.15307L19.6828 8.35432C19.6828 8.35432 19.2297 8.16964 18.8409 8.16964H18.8409ZM26.1 8.23903L25.3491 8.24089L25.1878 9.22903C25.1878 9.22903 24.9055 8.84557 24.4641 8.84557C23.7777 8.84557 23.2059 9.66097 23.2059 10.5987C23.2059 11.204 23.5102 11.7977 24.1341 11.7977C24.5828 11.7977 24.8316 11.4893 24.8316 11.4893L24.7987 11.7527H25.5281L26.1 8.23903ZM4.59186 8.24932L3.99375 11.7715H4.71468L5.17032 9.1156L5.23782 11.7715H5.75343L6.71532 9.1156L6.28875 11.7715H7.05468L7.64532 8.24932H6.46032L5.7225 10.4102L5.68407 8.24935H4.59189L4.59186 8.24932ZM12.1237 8.47807C12.1075 8.49442 11.6878 10.9143 11.6878 11.209C11.6878 11.6454 11.9324 11.8403 12.2766 11.8371C12.5232 11.835 12.7141 11.7731 12.8025 11.7471C12.8117 11.7446 12.8297 11.7396 12.8297 11.7396L12.9225 11.1096C12.872 11.1096 12.7977 11.1312 12.7322 11.1312C12.4752 11.1312 12.4468 10.9945 12.4631 10.8931L12.6703 9.60778H13.0612L13.1559 8.91118H12.7875L12.8625 8.47807H12.1237ZM20.8378 8.83246C20.3346 8.83246 19.9491 8.99839 19.9491 8.99839L19.8422 9.64528C19.8422 9.64528 20.1606 9.51307 20.6419 9.51307C20.9151 9.51307 21.1153 9.54433 21.1153 9.77182C21.1153 9.91 21.0909 9.96121 21.0909 9.96121C21.0909 9.96121 20.8749 9.94246 20.775 9.94246C20.1404 9.94246 19.4737 10.2206 19.4737 11.0571C19.4737 11.7163 19.9114 11.8671 20.1825 11.8671C20.7002 11.8671 20.9235 11.5232 20.9353 11.5221L20.9109 11.809H21.5569L21.8456 9.73903C21.8457 8.86069 21.0976 8.83243 20.8378 8.83243V8.83246ZM8.72061 8.83621C8.21559 8.83621 7.82811 9.00214 7.82811 9.00214L7.72125 9.64903C7.72125 9.64903 8.04075 9.51682 8.52375 9.51682C8.79801 9.51682 8.99907 9.5482 8.99907 9.77557C8.99907 9.91369 8.97468 9.96496 8.97468 9.96496C8.97468 9.96496 8.75799 9.94621 8.65782 9.94621C8.02083 9.94621 7.35189 10.2239 7.35189 11.06C7.35189 11.7188 7.79043 11.87 8.0625 11.87C8.58213 11.87 8.8062 11.526 8.81814 11.525L8.79375 11.8118H9.4425L9.73218 9.74278C9.73218 8.86495 8.98137 8.83618 8.72061 8.83618V8.83621ZM11.0119 8.83621C10.4696 8.83621 9.91875 9.05512 9.91875 9.80278C9.91875 10.6499 10.8366 10.5643 10.8366 10.9212C10.8366 11.1594 10.5804 11.179 10.3828 11.179C10.0408 11.179 9.73329 11.0609 9.73218 11.0665L9.63375 11.7134C9.65145 11.7189 9.84189 11.8043 10.4569 11.8043C10.622 11.8043 11.5659 11.8463 11.5659 10.8631C11.5659 9.9439 10.6922 10.1261 10.6922 9.75682C10.6922 9.57298 10.8341 9.51496 11.0944 9.51496C11.1977 9.51496 11.596 9.54778 11.596 9.54778L11.6878 8.89432C11.6878 8.89441 11.4309 8.83621 11.0119 8.83621H11.0119ZM14.4019 8.83621C13.6483 8.83636 13.0903 9.64672 13.0903 10.5621C13.0903 11.6187 13.7894 11.87 14.385 11.87C14.9348 11.87 15.1772 11.7471 15.1772 11.7471L15.3084 11.0262C15.3084 11.0262 14.8902 11.21 14.5125 11.21C13.7077 11.21 13.8488 10.6109 13.8488 10.6109H15.3722C15.3722 10.6109 15.4706 10.1267 15.4706 9.92932C15.4706 9.43672 15.2248 8.83621 14.4019 8.83621H14.4019ZM17.131 8.86714C16.7914 8.86714 16.5394 9.32371 16.5394 9.32371L16.6069 8.90464H15.9019L15.4285 11.7978H16.2075C16.4282 10.5623 16.4684 9.55915 16.995 9.74278C17.0872 9.26458 17.1766 9.07984 17.2772 8.87746C17.2772 8.87746 17.2299 8.86714 17.1309 8.86714H17.131ZM23.4431 8.86714C23.1036 8.86714 22.8516 9.32371 22.8516 9.32371L22.9191 8.90464H22.2141L21.7406 11.7978H22.5187C22.7395 10.5623 22.7808 9.55915 23.3072 9.74278C23.3995 9.26458 23.4889 9.07984 23.5894 8.87746C23.5894 8.87746 23.5421 8.86714 23.4431 8.86714H23.4431ZM14.3981 9.48871C14.8261 9.48871 14.7478 9.97183 14.7478 10.0109H13.905C13.905 9.96103 13.9847 9.48871 14.3981 9.48871H14.3981ZM24.5822 9.54496C24.8546 9.54487 24.9947 9.72889 24.9947 10.1618C24.9947 10.5546 24.7966 11.0796 24.3862 11.0796C24.1139 11.0796 23.9859 10.8547 23.9859 10.5021C23.9859 9.9256 24.2497 9.54496 24.5822 9.54496H24.5822ZM20.8387 10.5293C20.9499 10.5295 20.9728 10.5403 20.9916 10.5453C20.9889 10.5448 20.9884 10.5453 20.9991 10.5471C21.0131 10.676 20.9212 11.2803 20.4769 11.2803C20.2477 11.2803 20.1891 11.0981 20.1891 10.9906C20.1891 10.7809 20.2982 10.5293 20.8387 10.5293ZM8.72157 10.5321C8.84778 10.5323 8.86155 10.5464 8.88282 10.55C8.89692 10.6787 8.80464 11.2821 8.35875 11.2821C8.12874 11.2821 8.06907 11.1008 8.06907 10.9934C8.06907 10.7839 8.17887 10.5321 8.72157 10.5321Z" fill="#D7DDDF"/>
</svg>
