<svg width="16" height="15" viewBox="0 0 16 15" fill="none" xmlns="http://www.w3.org/2000/svg">
<path d="M12.5816 14.9375C12.4697 14.938 12.3606 14.9031 12.2698 14.8379L7.99952 11.7421L3.72927 14.8379C3.63803 14.9041 3.52812 14.9395 3.41542 14.9391C3.30272 14.9387 3.19307 14.9025 3.10232 14.8356C3.01158 14.7688 2.94443 14.6748 2.9106 14.5673C2.87677 14.4598 2.87801 14.3444 2.91413 14.2376L4.5796 9.30461L0.263191 6.34455C0.169695 6.28051 0.0991296 6.18824 0.0618049 6.08123C0.0244803 5.97423 0.0223528 5.85809 0.0557332 5.74979C0.0891136 5.64149 0.156253 5.5467 0.24734 5.47927C0.338428 5.41185 0.448692 5.37532 0.56202 5.37502H5.88714L7.49417 0.429413C7.52879 0.322639 7.59634 0.229574 7.68712 0.163569C7.77791 0.0975645 7.88727 0.0620117 7.99952 0.0620117C8.11177 0.0620117 8.22113 0.0975645 8.31192 0.163569C8.4027 0.229574 8.47025 0.322639 8.50487 0.429413L10.1119 5.37668H15.437C15.5505 5.37662 15.661 5.4129 15.7524 5.4802C15.8437 5.54749 15.9111 5.64227 15.9447 5.75066C15.9783 5.85904 15.9763 5.97533 15.939 6.0825C15.9017 6.18967 15.8311 6.28208 15.7375 6.34621L11.4194 9.30461L13.0839 14.2363C13.1109 14.3161 13.1185 14.4012 13.106 14.4846C13.0936 14.5679 13.0615 14.6471 13.0125 14.7157C12.9634 14.7842 12.8987 14.84 12.8238 14.8786C12.7489 14.9172 12.6658 14.9374 12.5816 14.9375Z" fill="#72AEC8"/>
</svg>
