<svg width="30" height="20" viewBox="0 0 30 20" fill="none" xmlns="http://www.w3.org/2000/svg">
<path d="M1.2 0.580078C0.53739 0.580078 0 1.11732 0 1.78008V18.2201C0 18.8828 0.53766 19.4201 1.2 19.4201H28.8C29.4626 19.4201 30 18.8828 30 18.2201V1.78008C30 1.11735 29.4623 0.580078 28.8 0.580078H1.2ZM17.9175 6.19476C18.6476 6.19476 19.2328 6.35604 19.6059 6.50601L19.3509 8.11008L19.1822 8.02476C18.8346 7.87479 18.3881 7.73046 17.7722 7.74069C17.0349 7.74069 16.6941 8.06958 16.6941 8.37729C16.6898 8.724 17.0923 8.95266 17.7506 9.29508C18.8371 9.82338 19.3393 10.4639 19.3322 11.306C19.3176 12.8425 18.0325 13.8354 16.0528 13.8354C15.2082 13.8261 14.3945 13.6473 13.9547 13.4407L14.2191 11.7832L14.4619 11.9013C15.0804 12.1777 15.4809 12.2895 16.2347 12.2895C16.776 12.2895 17.3569 12.0628 17.3616 11.5666C17.3651 11.2426 17.1187 11.0116 16.3856 10.6488C15.6713 10.2947 14.7242 9.70152 14.7347 8.6379C14.7459 7.19907 16.0566 6.19476 17.9175 6.19476ZM2.65311 6.43008H5.69343C6.10284 6.44556 6.43338 6.57738 6.5475 7.02165L7.20282 10.4041C7.20291 10.4044 7.2027 10.4057 7.20282 10.406L7.39968 11.4195L9.24561 6.43008H11.2425L8.27436 13.7332L6.27936 13.7351L4.69125 7.84194C5.63619 8.34255 6.44067 8.92176 6.90657 9.71883C6.78645 9.46662 6.62817 9.18192 6.42564 8.90133C6.18978 8.57457 5.68041 8.15268 5.4675 7.97319C4.7256 7.34778 3.71805 6.84267 2.62968 6.5754L2.65311 6.43008ZM12.0366 6.43851H13.9894L12.7678 13.7304H10.815L12.0366 6.43851ZM23.0662 6.43851H24.5456L26.0944 13.7304H24.3188C24.3188 13.7304 24.1426 12.8927 24.0853 12.6373C23.8062 12.6373 21.8543 12.6345 21.6347 12.6345C21.5604 12.8319 21.2316 13.7304 21.2316 13.7304H19.2225L22.0641 7.04415C22.2652 6.56901 22.6082 6.43851 23.0662 6.43851ZM23.2116 8.39976C23.1155 8.67099 22.9482 9.10899 22.9594 9.08976C22.9594 9.08976 22.3582 10.693 22.201 11.1091L23.7806 11.1082C23.6339 10.4129 23.487 9.71758 23.34 9.02232L23.2116 8.39982V8.39976Z" fill="#D7DDDF"/>
</svg>
